<?xml version="1.0" encoding="UTF-8"?>
<svg id="Camada_2" data-name="Camada 2" xmlns="http://www.w3.org/2000/svg" xmlns:xlink="http://www.w3.org/1999/xlink" viewBox="0 0 390.59 212.51">
  <defs>
    <style>
      .cls-1 {
        fill: url(#linear-gradient-3);
      }

      .cls-1, .cls-2, .cls-3, .cls-4, .cls-5, .cls-6, .cls-7, .cls-8, .cls-9 {
        fill-rule: evenodd;
      }

      .cls-2 {
        fill: url(#linear-gradient-9);
      }

      .cls-3 {
        fill: url(#linear-gradient-6);
      }

      .cls-10, .cls-4, .cls-11 {
        fill: #fff;
      }

      .cls-10, .cls-12, .cls-13, .cls-14, .cls-15, .cls-16, .cls-17, .cls-18, .cls-19, .cls-20 {
        clip-rule: evenodd;
      }

      .cls-21 {
        fill: url(#linear-gradient-8);
      }

      .cls-22 {
        fill: url(#linear-gradient-5);
      }

      .cls-23 {
        fill: url(#linear-gradient-2);
      }

      .cls-24 {
        fill: url(#linear-gradient);
      }

      .cls-25 {
        letter-spacing: .16em;
      }

      .cls-26 {
        letter-spacing: .14em;
      }

      .cls-27 {
        clip-path: url(#clippath-1);
      }

      .cls-28 {
        clip-path: url(#clippath-3);
      }

      .cls-29 {
        clip-path: url(#clippath-4);
      }

      .cls-30 {
        clip-path: url(#clippath-2);
      }

      .cls-31 {
        clip-path: url(#clippath-7);
      }

      .cls-32 {
        clip-path: url(#clippath-6);
      }

      .cls-33 {
        clip-path: url(#clippath-9);
      }

      .cls-34 {
        clip-path: url(#clippath-8);
      }

      .cls-35 {
        clip-path: url(#clippath-5);
      }

      .cls-12 {
        fill: url(#linear-gradient-4);
      }

      .cls-13 {
        fill: url(#linear-gradient-7);
      }

      .cls-11 {
        font-family: FuturaBT-Book, 'FuturaBT Book';
        font-size: 27.96px;
      }

      .cls-14 {
        fill: none;
      }

      .cls-36 {
        fill: url(#linear-gradient-11);
      }

      .cls-37 {
        fill: url(#linear-gradient-14);
      }

      .cls-38 {
        fill: url(#linear-gradient-20);
      }

      .cls-39 {
        fill: url(#linear-gradient-23);
      }

      .cls-40 {
        fill: url(#linear-gradient-17);
      }

      .cls-41 {
        fill: url(#linear-gradient-26);
      }

      .cls-5 {
        fill: url(#linear-gradient-21);
      }

      .cls-6 {
        fill: url(#linear-gradient-18);
      }

      .cls-7 {
        fill: url(#linear-gradient-15);
      }

      .cls-8 {
        fill: url(#linear-gradient-24);
      }

      .cls-9 {
        fill: url(#linear-gradient-12);
      }

      .cls-42 {
        clip-path: url(#clippath);
      }

      .cls-15 {
        fill: url(#linear-gradient-16);
      }

      .cls-16 {
        fill: url(#linear-gradient-22);
      }

      .cls-17 {
        fill: url(#linear-gradient-19);
      }

      .cls-18 {
        fill: url(#linear-gradient-25);
      }

      .cls-19 {
        fill: url(#linear-gradient-10);
      }

      .cls-20 {
        fill: url(#linear-gradient-13);
      }
    </style>
    <clipPath id="clippath">
      <polygon class="cls-10" points="390.59 172.9 322.9 173.02 278.59 107.99 278.59 3.81 318.3 3.81 319.43 132.46 390.59 132.46 390.59 172.9"/>
    </clipPath>
    <linearGradient id="linear-gradient" x1="278.59" y1="88.42" x2="390.59" y2="88.42" gradientUnits="userSpaceOnUse">
      <stop offset="0" stop-color="#fff"/>
      <stop offset="1" stop-color="#e6e6e6"/>
    </linearGradient>
    <clipPath id="clippath-1">
      <path class="cls-14" d="M318.27,3.81h-49.24l-56.07,84.25v84.82h-43.26v-75.75c.15-.02.29-.04.44-.06,10.23-1.58,17.24-11.15,15.66-21.38-1.3-8.44-8.04-14.68-16.1-15.73V3.24h43.26v84.82l55.79,84.82h49.52l-57.99-84.59L318.27,3.81Z"/>
    </clipPath>
    <linearGradient id="linear-gradient-2" x1="169.69" y1="88.06" x2="318.27" y2="88.06" xlink:href="#linear-gradient"/>
    <linearGradient id="linear-gradient-3" x1="45.71" y1="55.49" x2="55.21" y2="43.87" xlink:href="#linear-gradient"/>
    <linearGradient id="linear-gradient-4" x1="45.71" y1="55.49" x2="55.21" y2="43.87" xlink:href="#linear-gradient"/>
    <clipPath id="clippath-2">
      <path class="cls-12" d="M56.76,96.15c-14.34-15.47-20.63-31.32-14.4-40.02,6.29-8.79,23.6-7.85,43.11.99-.14.02-.28.04-.42.06-18.52,3.07-31.1,20.46-28.28,38.97M42.02,43.64c1.3,7.85-4.01,15.27-11.86,16.57-7.85,1.3-15.28-4.01-16.57-11.86-1.3-7.85,4.01-15.28,11.86-16.58,7.85-1.3,15.27,4.01,16.57,11.86Z"/>
    </clipPath>
    <linearGradient id="linear-gradient-5" x1="49.26" y1="62.85" x2="68.33" y2="39.51" xlink:href="#linear-gradient"/>
    <linearGradient id="linear-gradient-6" x1="34.39" y1="101.35" x2="31.62" y2="79.45" xlink:href="#linear-gradient"/>
    <linearGradient id="linear-gradient-7" x1="34.39" y1="101.35" x2="31.62" y2="79.45" xlink:href="#linear-gradient"/>
    <clipPath id="clippath-3">
      <path class="cls-13" d="M71.4,119.36c-21.61-.61-37.74-7.42-39.52-18.15-1.74-10.53,10.82-21.95,30.43-29.5-4.79,7.03-6.98,15.84-5.48,24.89,1.6,9.64,7.08,17.67,14.57,22.76M28.63,100.81c1.3,7.85-4.01,15.27-11.86,16.57-7.85,1.3-15.27-4.01-16.57-11.86-1.3-7.85,4.01-15.27,11.86-16.57,7.85-1.3,15.27,4.01,16.57,11.86Z"/>
    </clipPath>
    <linearGradient id="linear-gradient-8" x1="35.39" y1="97.49" x2="32.17" y2="72" xlink:href="#linear-gradient"/>
    <linearGradient id="linear-gradient-9" x1="55.96" y1="136.08" x2="68.04" y2="144.86" xlink:href="#linear-gradient"/>
    <linearGradient id="linear-gradient-10" x1="55.96" y1="136.08" x2="68.04" y2="144.86" xlink:href="#linear-gradient"/>
    <clipPath id="clippath-4">
      <path class="cls-19" d="M98.1,124.45c-16.01,15.5-32.72,22.51-41.75,16.05-8.71-6.23-7.86-23.27.74-42.56,3.7,17.93,20.94,29.89,39.17,26.87.62-.1,1.24-.22,1.84-.36M60.11,150.85c1.3,7.85-4.01,15.27-11.86,16.57-7.85,1.3-15.27-4.01-16.57-11.86-1.3-7.85,4.01-15.27,11.86-16.57,7.85-1.3,15.28,4.01,16.58,11.86Z"/>
    </clipPath>
    <linearGradient id="linear-gradient-11" x1="59.67" y1="130.01" x2="83.55" y2="147.39" xlink:href="#linear-gradient"/>
    <linearGradient id="linear-gradient-12" x1="100.64" y1="146.55" x2="128.64" y2="143.39" xlink:href="#linear-gradient"/>
    <linearGradient id="linear-gradient-13" x1="100.64" y1="146.55" x2="128.64" y2="143.39" xlink:href="#linear-gradient"/>
    <clipPath id="clippath-5">
      <path class="cls-20" d="M119.61,109.32c-.21,22.68-7.1,39.83-18.19,41.66-10.73,1.78-22.38-11.3-29.93-31.56,7.01,4.72,15.76,6.88,24.76,5.39,10.03-1.66,18.32-7.53,23.36-15.49M118.25,164.4c1.3,7.85-4.01,15.27-11.86,16.57-7.85,1.3-15.27-4.01-16.57-11.86-1.3-7.85,4.01-15.27,11.86-16.57,7.85-1.3,15.27,4.01,16.57,11.86Z"/>
    </clipPath>
    <linearGradient id="linear-gradient-14" x1="97.2" y1="145.61" x2="129.23" y2="142" xlink:href="#linear-gradient"/>
    <linearGradient id="linear-gradient-15" x1="132.53" y1="129.38" x2="142.09" y2="117.69" xlink:href="#linear-gradient"/>
    <linearGradient id="linear-gradient-16" x1="132.53" y1="129.38" x2="142.09" y2="117.69" xlink:href="#linear-gradient"/>
    <clipPath id="clippath-6">
      <path class="cls-15" d="M167.78,133.64c1.3,7.85-4.01,15.27-11.86,16.57-7.85,1.3-15.27-4.01-16.57-11.86-1.3-7.85,4.01-15.27,11.86-16.57,7.85-1.3,15.27,4.01,16.57,11.86M124.27,84.36c15.78,16.13,22.96,33.05,16.44,42.16-6.45,9.02-24.49,7.79-44.62-1.68l.16-.02c18.67-3.1,31.3-20.75,28.21-39.42-.06-.35-.12-.69-.19-1.03Z"/>
    </clipPath>
    <linearGradient id="linear-gradient-17" x1="126.22" y1="125.74" x2="145.29" y2="102.39" xlink:href="#linear-gradient"/>
    <linearGradient id="linear-gradient-18" x1="147.4" y1="79.82" x2="144.64" y2="57.96" xlink:href="#linear-gradient"/>
    <linearGradient id="linear-gradient-19" x1="147.4" y1="79.82" x2="144.64" y2="57.96" xlink:href="#linear-gradient"/>
    <clipPath id="clippath-7">
      <path class="cls-17" d="M181.48,76.42c1.3,7.85-4.01,15.28-11.86,16.58-7.85,1.3-15.27-4.01-16.57-11.86-1.3-7.85,4.01-15.27,11.86-16.57,7.85-1.3,15.27,4.01,16.57,11.86M110.79,63.27c22.05.45,38.6,7.29,40.4,18.17,1.84,11.08-12.15,23.13-33.52,30.64,5.68-7.29,8.42-16.85,6.79-26.69-1.53-9.25-6.64-17.02-13.67-22.12Z"/>
    </clipPath>
    <linearGradient id="linear-gradient-20" x1="146.25" y1="83.47" x2="143.03" y2="57.98" xlink:href="#linear-gradient"/>
    <linearGradient id="linear-gradient-21" x1="81.59" y1="33.77" x2="109.15" y2="30.67" xlink:href="#linear-gradient"/>
    <linearGradient id="linear-gradient-22" x1="81.59" y1="33.77" x2="109.15" y2="30.67" xlink:href="#linear-gradient"/>
    <clipPath id="clippath-8">
      <path class="cls-16" d="M92.69,12.06c1.3,7.85-4.01,15.27-11.86,16.57-7.85,1.3-15.27-4.01-16.57-11.86-1.3-7.85,4.01-15.27,11.86-16.58,7.85-1.3,15.27,4.01,16.57,11.86M63.54,70.03c.82-21.02,7.57-36.61,18.11-38.36,10.89-1.8,22.72,11.68,30.26,32.44-7.31-5.78-16.94-8.57-26.86-6.93-8.88,1.47-16.4,6.24-21.5,12.84Z"/>
    </clipPath>
    <linearGradient id="linear-gradient-23" x1="84.7" y1="34.77" x2="116.73" y2="31.16" xlink:href="#linear-gradient"/>
    <linearGradient id="linear-gradient-24" x1="124.98" y1="44.92" x2="137.09" y2="53.73" xlink:href="#linear-gradient"/>
    <linearGradient id="linear-gradient-25" x1="124.98" y1="44.92" x2="137.09" y2="53.73" xlink:href="#linear-gradient"/>
    <clipPath id="clippath-9">
      <path class="cls-18" d="M149.85,25.45c1.3,7.85-4.01,15.27-11.86,16.57-7.85,1.3-15.27-4.01-16.57-11.86-1.3-7.85,4.01-15.27,11.86-16.57,7.85-1.3,15.27,4.01,16.57,11.86M86.22,57.02c15.63-14.67,31.72-21.16,40.51-14.86,9.11,6.52,7.76,24.89-1.99,45.28-.07-.67-.16-1.35-.27-2.03-3.03-18.28-20-30.76-38.24-28.38Z"/>
    </clipPath>
    <linearGradient id="linear-gradient-26" x1="118.22" y1="49.52" x2="142.11" y2="66.9" xlink:href="#linear-gradient"/>
  </defs>
  <g id="Camada_1-2" data-name="Camada 1">
    <g>
      <polygon class="cls-4" points="390.59 172.9 322.9 173.02 278.59 107.99 278.59 3.81 318.3 3.81 319.43 132.46 390.59 132.46 390.59 172.9"/>
      <g class="cls-42">
        <rect class="cls-24" x="278.59" y="3.81" width="112" height="169.21"/>
      </g>
    </g>
    <g class="cls-27">
      <rect class="cls-23" x="169.69" y="3.24" width="148.58" height="169.64"/>
    </g>
    <text class="cls-11" transform="translate(165.88 205.52) scale(1.58 1)"><tspan class="cls-26" x="0" y="0">F</tspan><tspan class="cls-25" x="17.64" y="0">acilitie</tspan><tspan x="129.37" y="0">s</tspan></text>
    <g>
      <path class="cls-1" d="M56.76,96.15c-14.34-15.47-20.63-31.32-14.4-40.02,6.29-8.79,23.6-7.85,43.11.99-.14.02-.28.04-.42.06-18.52,3.07-31.1,20.46-28.28,38.97M42.02,43.64c1.3,7.85-4.01,15.27-11.86,16.57-7.85,1.3-15.28-4.01-16.57-11.86-1.3-7.85,4.01-15.28,11.86-16.58,7.85-1.3,15.27,4.01,16.57,11.86Z"/>
      <g class="cls-30">
        <rect class="cls-22" x="12.29" y="30.48" width="73.18" height="65.67"/>
      </g>
    </g>
    <g>
      <path class="cls-3" d="M71.4,119.36c-21.61-.61-37.74-7.42-39.52-18.15-1.74-10.53,10.82-21.95,30.43-29.5-4.79,7.03-6.98,15.84-5.48,24.89,1.6,9.64,7.08,17.67,14.57,22.76M28.63,100.81c1.3,7.85-4.01,15.27-11.86,16.57-7.85,1.3-15.27-4.01-16.57-11.86-1.3-7.85,4.01-15.27,11.86-16.57,7.85-1.3,15.27,4.01,16.57,11.86Z"/>
      <g class="cls-28">
        <rect class="cls-21" x="-1.11" y="71.72" width="72.51" height="47.65"/>
      </g>
    </g>
    <g>
      <path class="cls-2" d="M98.1,124.45c-16.01,15.5-32.72,22.51-41.75,16.05-8.71-6.23-7.86-23.27.74-42.56,3.7,17.93,20.94,29.89,39.17,26.87.62-.1,1.24-.22,1.84-.36M60.11,150.85c1.3,7.85-4.01,15.27-11.86,16.57-7.85,1.3-15.27-4.01-16.57-11.86-1.3-7.85,4.01-15.27,11.86-16.57,7.85-1.3,15.28,4.01,16.58,11.86Z"/>
      <g class="cls-29">
        <rect class="cls-36" x="30.37" y="97.94" width="67.72" height="70.78"/>
      </g>
    </g>
    <g>
      <path class="cls-9" d="M119.61,109.32c-.21,22.68-7.1,39.83-18.19,41.66-10.73,1.78-22.38-11.3-29.93-31.56,7.01,4.72,15.76,6.88,24.76,5.39,10.03-1.66,18.32-7.53,23.36-15.49M118.25,164.4c1.3,7.85-4.01,15.27-11.86,16.57-7.85,1.3-15.27-4.01-16.57-11.86-1.3-7.85,4.01-15.27,11.86-16.57,7.85-1.3,15.27,4.01,16.57,11.86Z"/>
      <g class="cls-35">
        <rect class="cls-37" x="71.49" y="109.32" width="48.12" height="72.95"/>
      </g>
    </g>
    <g>
      <path class="cls-7" d="M167.78,133.64c1.3,7.85-4.01,15.27-11.86,16.57-7.85,1.3-15.27-4.01-16.57-11.86-1.3-7.85,4.01-15.27,11.86-16.57,7.85-1.3,15.27,4.01,16.57,11.86M124.27,84.36c15.78,16.13,22.96,33.05,16.44,42.16-6.45,9.02-24.49,7.79-44.62-1.68l.16-.02c18.67-3.1,31.3-20.75,28.21-39.42-.06-.35-.12-.69-.19-1.03Z"/>
      <g class="cls-32">
        <rect class="cls-40" x="96.09" y="84.36" width="72.99" height="67.15"/>
      </g>
    </g>
    <g>
      <path class="cls-6" d="M181.48,76.42c1.3,7.85-4.01,15.28-11.86,16.58-7.85,1.3-15.27-4.01-16.57-11.86-1.3-7.85,4.01-15.27,11.86-16.57,7.85-1.3,15.27,4.01,16.57,11.86M110.79,63.27c22.05.45,38.6,7.29,40.4,18.17,1.84,11.08-12.15,23.13-33.52,30.64,5.68-7.29,8.42-16.85,6.79-26.69-1.53-9.25-6.64-17.02-13.67-22.12Z"/>
      <g class="cls-31">
        <rect class="cls-38" x="110.79" y="63.26" width="72" height="48.82"/>
      </g>
    </g>
    <g>
      <path class="cls-5" d="M92.69,12.06c1.3,7.85-4.01,15.27-11.86,16.57-7.85,1.3-15.27-4.01-16.57-11.86-1.3-7.85,4.01-15.27,11.86-16.58,7.85-1.3,15.27,4.01,16.57,11.86M63.54,70.03c.82-21.02,7.57-36.61,18.11-38.36,10.89-1.8,22.72,11.68,30.26,32.44-7.31-5.78-16.94-8.57-26.86-6.93-8.88,1.47-16.4,6.24-21.5,12.84Z"/>
      <g class="cls-34">
        <rect class="cls-39" x="62.95" y="-1.1" width="48.95" height="71.13"/>
      </g>
    </g>
    <g>
      <path class="cls-8" d="M149.85,25.45c1.3,7.85-4.01,15.27-11.86,16.57-7.85,1.3-15.27-4.01-16.57-11.86-1.3-7.85,4.01-15.27,11.86-16.57,7.85-1.3,15.27,4.01,16.57,11.86M86.22,57.02c15.63-14.67,31.72-21.16,40.51-14.86,9.11,6.52,7.76,24.89-1.99,45.28-.07-.67-.16-1.35-.27-2.03-3.03-18.28-20-30.76-38.24-28.38Z"/>
      <g class="cls-33">
        <rect class="cls-41" x="86.22" y="12.29" width="64.93" height="75.14"/>
      </g>
    </g>
  </g>
</svg>